<?xml version="1.0" encoding="UTF-8"?>
<svg id="Layer_1" data-name="Layer 1" xmlns="http://www.w3.org/2000/svg" xmlns:xlink="http://www.w3.org/1999/xlink" viewBox="0 0 1920 1080">
  <defs>
    <style>
      .cls-1 {
        fill: url(#linear-gradient-2);
      }

      .cls-2 {
        fill: #77b343;
      }

      .cls-3 {
        fill: url(#linear-gradient);
      }

      .cls-4 {
        fill: #1e5baa;
      }
    </style>
    <linearGradient id="linear-gradient" x1="824.77" y1="438.97" x2="1030.19" y2="643.23" gradientUnits="userSpaceOnUse">
      <stop offset="0" stop-color="#6eaf44"/>
      <stop offset=".12" stop-color="#66a84b"/>
      <stop offset=".3" stop-color="#539661"/>
      <stop offset=".52" stop-color="#337984"/>
      <stop offset=".71" stop-color="#135ca7"/>
    </linearGradient>
    <linearGradient id="linear-gradient-2" x1="566.59" y1="385.92" x2="1263.76" y2="661.67" gradientUnits="userSpaceOnUse">
      <stop offset="0" stop-color="#39b54a"/>
      <stop offset=".17" stop-color="#35aa55"/>
      <stop offset=".46" stop-color="#2b8f72"/>
      <stop offset=".84" stop-color="#1b64a2"/>
      <stop offset=".91" stop-color="#195cab"/>
    </linearGradient>
  </defs>
  <path class="cls-3" d="M865.32,480.04v-81.14s-.98-14.24,11.9-14.58c12.88-.34,69.83,0,69.83,0,0,0,14.24-.34,14.24,17.29v78.43l79.3-.07s.42,0,1.13,0c.41,0,.84,0,1.45,0,4.67,0,14.04,1.72,14.04,11.39,0,12.88-.09,64.75-.09,64.75,0,0,2.12,17.68-13.81,17.34s-81.93,0-81.93,0v79.21s.28,14.86-15.99,14.86h-65.11s-15.15,1.17-15.09-14.42c0-1.97,0-4.72,0-8.01,0-2.2,0-4.65,0-7.27,0-2.07,0-4.24,0-6.5s0-4.59,0-6.96c0-2.19,0-4.42,0-6.67,0-1.83,0-3.67,0-5.49,0-3.15,0-6.28,0-9.33,0-2.17,0-4.29,0-6.34,0-1.66,0-3.28,0-4.83,0-1.73,0-3.39,0-4.94,0-1.71,0-3.27,0-4.72,0-5.49,0-8.94,0-8.94h-85.93s-11.45.67-11.36-16.93c.01-2.77-.05-5.87-.09-10.17-.02-2.06-.02-4.21,0-6.46.01-2.05,0-4.14,0-6.28,0-18.72-.13-39.47-.13-39.47,0,0-3-13.85,17-13.85s80.64.08,80.64.08Z"/>
  <path class="cls-4" d="M903.36,367.84s169.73-98.06,346.24-9.05c0,0-163.69-57.33-346.24,9.05Z"/>
  <path class="cls-2" d="M978.04,367.84s98.06-29.42,205.18-7.54c107.12,21.88,135.78,82.98,144.83,103.34,0,0-33.95-61.86-149.36-90.52-115.41-28.66-200.65-5.28-200.65-5.28Z"/>
  <path class="cls-1" d="M1139.81,729.37c60.92-51.96,98.87-124.81,98.87-205.53,0-48.74-13.85-94.61-38.2-134.76-13.81-4.02-50.4-13.41-71.6-7.03,29.22,40.75,46.41,90.31,46.41,143.81,0,138.73-115.23,251.19-257.38,251.19s-257.38-112.46-257.38-251.19,115.23-251.19,257.38-251.19c48.87,0,94.57,13.3,133.49,36.38,13.09-1.01,57.78-3.87,82.22,2.04-57.53-46.54-134.15-74.96-218.3-74.96-178.59,0-323.37,127.91-323.37,285.71s144.78,285.71,323.37,285.71c50.07,0,97.47-10.06,139.78-28.01l89.32,60.32h128.34l-132.95-112.49Z"/>
</svg>